<?xml version="1.0" encoding="utf-8"?>
<!-- Generator: Adobe Illustrator 21.0.2, SVG Export Plug-In . SVG Version: 6.00 Build 0)  -->
<svg version="1.1" id="图层_1" xmlns="http://www.w3.org/2000/svg" xmlns:xlink="http://www.w3.org/1999/xlink" x="0px" y="0px"
	 viewBox="0 0 14 14" style="enable-background:new 0 0 14 14;" xml:space="preserve">
<style type="text/css">
	.st0{fill:#7C8597;}
</style>
<path class="st0" d="M12.2,11.1c-0.7-0.7-1.7-1-2.5-1.1C9.6,10,9.5,10,9.4,9.9C9.4,9.8,9.4,9.8,9.3,9.7c0.5-0.4,0.7-1,0.9-1.4
	c0.1-0.2,0.2-0.4,0.2-0.5l0,0v0l0,0l0,0c0.2-0.2,0.5-0.6,0.7-1c0.2-0.5,0.2-1-0.1-1.4c0.1-0.3,0.2-0.6,0.2-0.9
	c0.1-0.4,0.1-0.8,0-1.1c-0.1-0.5-0.4-1.3-0.9-1.8C10,1,9.6,0.8,9.1,0.8c0,0-0.1,0-0.1,0C8.7,0.4,8.3,0.2,7.8,0.1
	C7.5,0.1,7.1,0.1,6.9,0.1c-0.1,0-0.2,0-0.2,0l0,0C5.8,0.1,5,0.3,4.5,0.7c-0.6,0.4-1,1-1.3,1.7l0,0l0,0C3,2.9,2.9,3.5,2.9,4.1
	C2.9,4.6,3,5,3.1,5.4c-0.2,0.4-0.2,0.8,0,1.4c0.2,0.4,0.5,0.8,0.7,1v0h0l0,0l0,0c0,0.1,0.1,0.3,0.2,0.5c0.2,0.4,0.4,1,0.9,1.5
	c0,0.1,0,0.1-0.1,0.2C4.8,10,4.7,10,4.5,10c-0.7,0.1-1.8,0.4-2.5,1.1c-0.6,0.6-0.9,1.4-0.9,2.2c0,0.3,0.2,0.6,0.5,0.6
	c0.3,0,0.6-0.3,0.6-0.5c0-0.6,0.2-1.1,0.6-1.4c0.5-0.5,1.3-0.8,1.8-0.8c0.4,0,0.8-0.2,1-0.5C6,10.3,6,9.9,6,9.5C6,9.3,5.9,9.1,5.8,9
	C5.4,8.8,5.2,8.3,5,7.9l0,0C4.9,7.5,4.8,7.2,4.5,7l0,0h0l0,0l0,0C4.4,6.8,4.2,6.6,4.1,6.4C4,6.1,4.1,6,4.1,5.9
	c0-0.1,0.1-0.2,0.1-0.3c0-0.1,0-0.3-0.1-0.4C4.1,4.9,4,4.5,4,4.1c0-0.4,0.1-0.9,0.2-1.3l0,0c0.2-0.5,0.5-0.9,0.8-1.1
	C5.5,1.3,6,1.2,6.7,1.2c0.1,0,0.2,0,0.3,0c0.3,0,0.5,0,0.6,0c0.3,0,0.4,0.1,0.5,0.2l0,0l0,0c0.1,0.1,0.2,0.2,0.4,0.3
	c0.1,0.1,0.3,0.1,0.4,0.1c0,0,0.1,0,0.1,0c0,0,0,0,0,0c0.1,0,0.3,0.1,0.5,0.3c0.3,0.4,0.6,1,0.6,1.3c0,0.2,0,0.5,0,0.8
	c0,0.3-0.1,0.6-0.2,0.9c-0.1,0.2,0,0.5,0.1,0.6h0l0,0c0.1,0.1,0.1,0.3,0,0.5C10.1,6.6,9.9,6.8,9.8,7v0l0,0C9.5,7.2,9.4,7.5,9.2,7.8
	l0,0C9,8.3,8.9,8.8,8.5,9C8.3,9.1,8.3,9.2,8.2,9.4c0,0.5,0.2,1,0.4,1.2c0.3,0.3,0.6,0.4,1,0.5c0.5,0,1.3,0.3,1.8,0.8
	c0.4,0.4,0.6,0.9,0.6,1.4c0,0.3,0.2,0.6,0.5,0.6c0.3,0,0.5-0.3,0.5-0.5C13.2,12.5,12.8,11.7,12.2,11.1L12.2,11.1z"/>
</svg>
