<?xml version="1.0" encoding="utf-8"?>
<!-- Generator: Adobe Illustrator 21.0.2, SVG Export Plug-In . SVG Version: 6.00 Build 0)  -->
<svg version="1.1" id="图层_1" xmlns="http://www.w3.org/2000/svg" xmlns:xlink="http://www.w3.org/1999/xlink" x="0px" y="0px"
	 viewBox="0 0 153 47" style="enable-background:new 0 0 153 47;" xml:space="preserve">
<style type="text/css">
	.st0{fill:#00A7DD;stroke:#00A7DD;stroke-width:0.8;stroke-miterlimit:10;}
	.st1{fill:#00A7DD;}
	.st2{fill:url(#SVGID_1_);}
	.st3{fill:#FFFFFF;}
	.st4{font-family:'HYZhuZiMeiXinTiW';}
	.st5{font-size:24px;}
	.st6{letter-spacing:1;}
	.st7{font-family:'STHeitiTC-Medium';}
	.st8{font-size:6px;}
</style>
<g>
	<g>
		<path class="st3" d="M14.67,17.41H4.95c-1.19,0-2.16-0.97-2.16-2.16v0c0-1.19,0.97-2.16,2.16-2.16h9.71
			c1.19,0,2.16,0.97,2.16,2.16v0C16.83,16.44,15.85,17.41,14.67,17.41z"/>
		<path class="st3" d="M14.67,17.81H4.95c-1.41,0-2.56-1.15-2.56-2.56c0-1.41,1.15-2.56,2.56-2.56h9.71c1.41,0,2.56,1.15,2.56,2.56
			C17.23,16.67,16.08,17.81,14.67,17.81z M4.95,13.5c-0.97,0-1.76,0.79-1.76,1.76s0.79,1.76,1.76,1.76h9.71
			c0.97,0,1.76-0.79,1.76-1.76s-0.79-1.76-1.76-1.76H4.95z"/>
	</g>
	<g>
		<path class="st3" d="M14.67,39H4.95c-1.19,0-2.16-0.97-2.16-2.16v0c0-1.19,0.97-2.16,2.16-2.16h9.71c1.19,0,2.16,0.97,2.16,2.16v0
			C16.83,38.03,15.85,39,14.67,39z"/>
		<path class="st3" d="M14.67,39.4H4.95c-1.41,0-2.56-1.15-2.56-2.56c0-1.41,1.15-2.56,2.56-2.56h9.71c1.41,0,2.56,1.15,2.56,2.56
			C17.23,38.25,16.08,39.4,14.67,39.4z M4.95,35.08c-0.97,0-1.76,0.79-1.76,1.76s0.79,1.76,1.76,1.76h9.71
			c0.97,0,1.76-0.79,1.76-1.76s-0.79-1.76-1.76-1.76H4.95z"/>
	</g>
	<g>
		<path class="st3" d="M43.27,17.41h-9.71c-1.19,0-2.16-0.97-2.16-2.16v0c0-1.19,0.97-2.16,2.16-2.16h9.71
			c1.19,0,2.16,0.97,2.16,2.16v0C45.43,16.44,44.46,17.41,43.27,17.41z"/>
		<path class="st3" d="M43.27,17.81h-9.71c-1.41,0-2.56-1.15-2.56-2.56c0-1.41,1.15-2.56,2.56-2.56h9.71c1.41,0,2.56,1.15,2.56,2.56
			C45.83,16.67,44.68,17.81,43.27,17.81z M33.56,13.5c-0.97,0-1.76,0.79-1.76,1.76s0.79,1.76,1.76,1.76h9.71
			c0.97,0,1.76-0.79,1.76-1.76s-0.79-1.76-1.76-1.76H33.56z"/>
	</g>
	<g>
		<path class="st3" d="M43.27,39h-9.71c-1.19,0-2.16-0.97-2.16-2.16v0c0-1.19,0.97-2.16,2.16-2.16h9.71c1.19,0,2.16,0.97,2.16,2.16
			v0C45.43,38.03,44.46,39,43.27,39z"/>
		<path class="st3" d="M43.27,39.4h-9.71c-1.41,0-2.56-1.15-2.56-2.56c0-1.41,1.15-2.56,2.56-2.56h9.71c1.41,0,2.56,1.15,2.56,2.56
			C45.83,38.25,44.68,39.4,43.27,39.4z M33.56,35.08c-0.97,0-1.76,0.79-1.76,1.76s0.79,1.76,1.76,1.76h9.71
			c0.97,0,1.76-0.79,1.76-1.76s-0.79-1.76-1.76-1.76H33.56z"/>
	</g>
	<g>
		<rect x="8.19" y="16.87" class="st3" width="3.78" height="18.89"/>
		<path class="st3" d="M12.37,36.16H7.79V16.47h4.58V36.16z M8.59,35.36h2.98V17.27H8.59V35.36z"/>
	</g>
	<g>
		<rect x="36.25" y="16.87" class="st3" width="3.78" height="18.89"/>
		<path class="st3" d="M40.43,36.16h-4.58V16.47h4.58V36.16z M36.65,35.36h2.98V17.27h-2.98V35.36z"/>
	</g>
	<g>
		<path class="st3" d="M22.52,25.93l-9.04-9.04c-0.84-0.84-0.84-2.21,0-3.05l0,0c0.84-0.84,2.21-0.84,3.05,0l9.04,9.04
			c0.84,0.84,0.84,2.21,0,3.05l0,0C24.74,26.77,23.36,26.77,22.52,25.93z"/>
		<path class="st3" d="M24.05,26.96c-0.66,0-1.31-0.25-1.81-0.75l-9.04-9.04c-0.48-0.48-0.75-1.12-0.75-1.81
			c0-0.68,0.27-1.33,0.75-1.81c0.96-0.96,2.66-0.96,3.62,0l9.04,9.04c1,1,1,2.62,0,3.62C25.36,26.71,24.71,26.96,24.05,26.96z
			 M15.01,13.61c-0.47,0-0.91,0.18-1.24,0.51c-0.33,0.33-0.51,0.77-0.51,1.24c0,0.47,0.18,0.91,0.51,1.24l9.04,9.04
			c0.69,0.69,1.8,0.69,2.49,0c0.69-0.69,0.69-1.8,0-2.49l-9.04-9.04C15.92,13.79,15.48,13.61,15.01,13.61z"/>
	</g>
	<g>
		<path class="st3" d="M27.77,17.75l3.91-3.91c0.84-0.84,2.21-0.84,3.05,0l0,0c0.84,0.84,0.84,2.21,0,3.05l-3.91,3.91
			c-0.84,0.84-2.21,0.84-3.05,0l0,0C26.93,19.96,26.93,18.59,27.77,17.75z"/>
		<path class="st3" d="M29.3,21.83c-0.69,0-1.33-0.27-1.81-0.75c-1-1-1-2.62,0-3.62l3.91-3.91c0.97-0.96,2.66-0.96,3.62,0
			c0.48,0.48,0.75,1.12,0.75,1.81c0,0.69-0.27,1.33-0.75,1.81l-3.91,3.91C30.63,21.57,29.98,21.83,29.3,21.83z M33.21,13.61
			c-0.47,0-0.91,0.18-1.24,0.51l-3.91,3.91c-0.69,0.69-0.69,1.8,0,2.49c0.66,0.66,1.83,0.66,2.49,0l3.91-3.91
			c0.33-0.33,0.51-0.77,0.51-1.24c0-0.47-0.18-0.91-0.51-1.24C34.12,13.79,33.68,13.61,33.21,13.61z"/>
	</g>
</g>
<g>
	<path class="st3" d="M31.37,20.25c-0.01-0.01-0.01-0.02-0.02-0.03c-0.16-0.3-0.33-0.59-0.52-0.86c-0.62-0.79-1.57-1.8-1.57-1.8
		l-8.11-8.11l0.13-0.13h5.68l1.69,1.69c0.73,0.73,1.94,0.73,2.67,0l0.38-0.38c0.73-0.73,0.73-1.94,0-2.67L29.3,5.55
		C28.92,5.17,28.42,4.99,27.92,5c-0.01,0-0.02,0-0.04,0h-7.56c-0.01,0-0.02,0-0.03,0c-0.49-0.01-0.99,0.17-1.37,0.55l-2.41,2.41
		c-0.71,0.71-0.73,1.84-0.07,2.58l-0.01,0l1.18,1.37l0-0.01c0.01,0.02,0.02,0.03,0.04,0.05l8.69,8.69l0.01,0.01
		c0,0,0.6,0.6,1.12,1.48l0.16,0.3c0.33,0.65,0.51,1.39,0.51,2.17c0,0.17-0.01,0.34-0.03,0.51c-0.03,0.14-0.05,0.26-0.05,0.34
		c-0.4,2.27-2.39,4-4.78,4c-2.68,0-4.86-2.17-4.86-4.86c0-1.2,0.44-2.3,1.17-3.15l-3.05-3.05c-1.5,1.63-2.43,3.81-2.43,6.2
		c0,5.07,4.11,9.17,9.17,9.17s9.17-4.11,9.17-9.17C32.48,23.02,32.07,21.55,31.37,20.25z"/>
	<path class="st3" d="M15.78,10.21c-0.37-0.84-0.21-1.85,0.47-2.53l2.41-2.41c0.44-0.44,1.03-0.67,1.66-0.67l7.58,0
		c0.64-0.02,1.25,0.23,1.69,0.67l2.41,2.41c0.43,0.43,0.67,1.01,0.67,1.62c0,0.61-0.24,1.19-0.67,1.62l-0.38,0.38
		c-0.89,0.89-2.35,0.89-3.24,0l-1.58-1.58h-4.8l7.56,7.56c0.32,0.35,1.08,1.17,1.6,1.84c0.21,0.3,0.39,0.61,0.56,0.92l0.04,0.04
		l-0.03-0.01c0.75,1.39,1.15,2.96,1.15,4.53c0,5.28-4.3,9.57-9.58,9.57s-9.58-4.29-9.58-9.57c0-2.4,0.9-4.7,2.54-6.48l0.28-0.31
		l3.61,3.61l-0.24,0.28c-0.69,0.81-1.07,1.83-1.07,2.89c0,2.46,2,4.46,4.46,4.46c2.16,0,4-1.54,4.38-3.67
		c0-0.05,0.01-0.18,0.06-0.36c0.01-0.11,0.02-0.26,0.02-0.42c0-0.69-0.16-1.36-0.47-1.99l-0.15-0.3c-0.47-0.8-1.04-1.37-1.04-1.38
		l-8.19-8.19 M16.58,18.98c-1.32,1.58-2.05,3.56-2.05,5.62c0,4.84,3.94,8.77,8.77,8.77s8.77-3.94,8.77-8.77
		c0-1.44-0.34-2.82-1.03-4.1l-0.03-0.03l-0.05-0.12c-0.12-0.22-0.29-0.5-0.47-0.76c-0.51-0.65-1.29-1.5-1.52-1.75l-8.4-8.4
		l0.53-0.53h6.01l1.81,1.81c0.58,0.58,1.52,0.58,2.11,0l0.38-0.38c0.28-0.28,0.43-0.65,0.43-1.05c0-0.4-0.15-0.77-0.43-1.05
		l-2.41-2.41c-0.28-0.29-0.65-0.46-1.08-0.43l-7.6,0c-0.43-0.02-0.83,0.15-1.11,0.43l-2.41,2.41c-0.55,0.55-0.58,1.45-0.05,2.04
		l0.52,0.58l-0.02,0l0.67,0.77l8.72,8.73c0.04,0.04,0.65,0.66,1.19,1.57L28,22.25c0.37,0.74,0.56,1.53,0.56,2.35
		c0,0.19-0.01,0.37-0.03,0.55c-0.03,0.16-0.05,0.25-0.05,0.31c-0.45,2.57-2.63,4.39-5.18,4.39c-2.9,0-5.26-2.36-5.26-5.26
		c0-1.12,0.36-2.22,1.03-3.12L16.58,18.98z"/>
</g>
<text transform="matrix(1 0 0 1 52.3315 29.418)" class="st3 st4 st5 st6">私募中国</text>
<text transform="matrix(1 0 0 1 60.021 39.918)" class="st3 st7 st8">private equity  CHINA</text>
</svg>
